<svg fill="none" height="25" viewBox="0 0 25 25" width="25" xmlns="http://www.w3.org/2000/svg" xmlns:xlink="http://www.w3.org/1999/xlink"><clipPath id="a"><path d="m0 0h25v25h-25z"/></clipPath><g clip-path="url(#a)"><path d="m4.42708 0h16.14582c2.4479 0 4.4271 2.02991 4.4271 4.5406v15.9188c0 2.5107-1.9792 4.5406-4.4271 4.5406h-16.14582c-2.44791 0-4.42708-2.0299-4.42708-4.5406v-15.9188c0-2.51069 1.97917-4.5406 4.42708-4.5406z" fill="#470137"/><g fill="#ff61f6"><path d="m13.1457 6.57053-3.125 5.28847 3.3333 5.609c.0209.0427.0313.0854.0209.1282-.0105.0427-.0521.0107-.1146.0213h-2.3854c-.1667 0-.2813-.0106-.3542-.1175-.2188-.4487-.4479-.8867-.66668-1.3354-.21875-.4381-.45833-.8868-.70833-1.3462s-.5-.9188-.75-1.3889h-.02084c-.21875.4594-.45833.9188-.69791 1.3782-.23959.4594-.47917.9188-.70834 1.3675-.23958.4488-.47916.9082-.71875 1.3462-.04166.1068-.125.1175-.23958.1175h-2.29167c-.04166 0-.07291.0214-.07291-.032-.01042-.0428 0-.0855.02083-.1176l3.23959-5.4487-3.15626-5.48075c-.03125-.04273-.04166-.08547-.02083-.10684.02083-.03205.0625-.04273.10417-.04273h2.36458c.05208 0 .10417.01068.14583.02137.04167.02136.07292.05341.10417.09615.19792.4594.42709.9188.66667 1.3782.25.45941.48958.90812.75 1.35684.25.44872.47916.89746.69791 1.35686h.02084c.21875-.4701.44791-.92951.67708-1.37823.22917-.44871.46875-.89743.70833-1.34615.2396-.44872.4688-.90812.6979-1.34615.0104-.04274.0313-.08547.0625-.10684.0417-.02137.0834-.03205.1354-.02137h2.198c.052-.01068.1041.02137.1145.07479.0105.01068-.0104.05342-.0312.07478z"/><path d="m17.9581 17.8419c-.7709.0107-1.5417-.1496-2.2396-.4808-.6563-.3098-1.1979-.8226-1.5729-1.453-.3854-.6517-.5729-1.4636-.5729-2.4359-.0105-.7906.1875-1.5705.5729-2.2542.3958-.6945.9687-1.2714 1.6562-1.65602.7292-.41666 1.6042-.61966 2.6354-.61966.0521 0 .125.00001.2188.01069.0937.01068.1979.01068.3229.02137v-3.37607c0-.07479.0313-.11752.1042-.11752h2.1146c.052-.01069.0937.03205.1041.07478v.02137 10.17096c0 .1923.0104.406.0209.641.0208.2244.0312.438.0416.6197 0 .0748-.0312.1389-.1041.1709-.5417.235-1.1146.406-1.698.5128-.5312.0962-1.0625.1496-1.6041.1496zm1.0208-2.1368v-4.7008c-.0937-.0214-.1875-.0427-.2812-.0534-.1146-.0107-.2292-.0214-.3438-.0214-.4062 0-.8125.0855-1.1771.2778-.3541.1816-.6562.4487-.8854.7906s-.3437.8013-.3437 1.3568c-.0105.374.052.7479.177 1.1004.1042.2885.2605.5449.4688.7586.1979.1923.4375.3419.7083.4273.2813.0962.5729.1389.8646.1389.1563 0 .3021-.0107.4375-.0213.1354.0106.25-.0107.375-.0535z"/></g></g></svg>