<svg width="25" height="23" viewBox="0 0 25 23" fill="none" xmlns="http://www.w3.org/2000/svg">
<g clip-path="url(#clip0_441_6)">
<path d="M5.44355 0.756878L12.4748 0L19.5061 0.756878L24.9496 8.19737L12.4748 22.9886L0 8.19737L5.44355 0.756878Z" fill="#FDB300"/>
<path d="M5.05292 8.19739L12.4748 22.9886L0 8.19739H5.05292Z" fill="#EA6C00"/>
<path d="M19.8965 8.19739L12.4746 22.9886L24.9494 8.19739H19.8965Z" fill="#EA6C00"/>
<path d="M5.05273 8.19739H19.8965L12.4746 22.9886L5.05273 8.19739Z" fill="#FDAD00"/>
<path d="M12.4746 0L5.44334 0.756868L5.05273 8.19737L12.4746 0Z" fill="#FDD231"/>
<path d="M12.4746 0L19.5059 0.756868L19.8965 8.19737L12.4746 0Z" fill="#FDD231"/>
<path d="M24.9496 8.19734L19.506 0.756836L19.8967 8.19734H24.9496ZM0 8.19734L5.44353 0.756836L5.05292 8.19734H0Z" fill="#FDAD00"/>
<path d="M12.4746 0L5.05273 8.19737H19.8965L12.4746 0Z" fill="#FEEEB7"/>
</g>
<defs>
<clipPath id="clip0_441_6">
<rect width="25" height="23" fill="white"/>
</clipPath>
</defs>
</svg>
