<svg width="25" height="22" viewBox="0 0 25 22" fill="none" xmlns="http://www.w3.org/2000/svg">
<path d="M22.9157 15.4774C22.9149 15.4764 22.9142 15.4757 22.9133 15.4747C22.9499 15.3521 22.9877 15.2303 23.0198 15.1046C24.3942 9.71929 21.0398 3.35236 15.3635 0C17.851 3.31639 18.9508 7.33329 17.9736 10.8462C17.8865 11.1595 17.7817 11.4602 17.6659 11.7525C17.5402 11.6713 17.3819 11.5791 17.1692 11.4638C17.1692 11.4638 11.5228 8.03508 5.40292 1.97056C5.24234 1.81138 8.66627 6.78346 12.552 10.8209C10.7213 9.81048 5.61931 6.15971 2.38941 3.25239C2.78624 3.90323 3.25822 4.52995 3.77704 5.1333C6.47429 8.49739 9.99183 12.6482 14.206 15.8355C11.2451 17.6175 7.06124 17.7561 2.89558 15.8373C1.86524 15.3624 0.89663 14.7895 0 14.1385C1.76332 16.9123 4.47908 19.3055 7.78441 20.7027C11.7262 22.3686 15.6459 22.2557 18.5654 20.73L18.5631 20.7333C18.5764 20.725 18.5934 20.716 18.6072 20.7076C18.7271 20.6442 18.8461 20.5796 18.9624 20.5115C20.3651 19.7954 23.1357 19.069 24.6228 21.9146C24.987 22.611 25.7609 18.9204 22.9157 15.4774Z" fill="#F05138"/>
</svg>
