<svg width="66" height="34" viewBox="0 0 66 34" fill="none" xmlns="http://www.w3.org/2000/svg">
<path fill-rule="evenodd" clip-rule="evenodd" d="M4.37114e-08 17.0002C6.78525e-08 16.7241 0.223858 16.5002 0.5 16.5002L64.5 16.5002C64.7761 16.5002 65 16.7241 65 17.0002C65 17.2764 64.7761 17.5002 64.5 17.5002L0.5 17.5002C0.223858 17.5002 1.95703e-08 17.2764 4.37114e-08 17.0002Z" fill="white"/>
<path fill-rule="evenodd" clip-rule="evenodd" d="M65.5877 17.1551C65.3972 17.3551 65.0807 17.3628 64.8808 17.1724L47.7551 0.862204C47.5551 0.671759 47.5474 0.355273 47.7378 0.155308C47.9283 -0.0446564 48.2448 -0.0523754 48.4447 0.138068L65.5704 16.4482C65.7704 16.6387 65.7781 16.9552 65.5877 17.1551Z" fill="white"/>
<path fill-rule="evenodd" clip-rule="evenodd" d="M65.5791 16.4567C65.7744 16.652 65.7744 16.9686 65.5791 17.1639L49.269 33.474C49.0737 33.6693 48.7571 33.6693 48.5619 33.474C48.3666 33.2788 48.3666 32.9622 48.5619 32.7669L64.872 16.4567C65.0673 16.2615 65.3839 16.2615 65.5791 16.4567Z" fill="white"/>
</svg>
