<svg width="66" height="34" viewBox="0 0 66 34" fill="none" xmlns="http://www.w3.org/2000/svg">
<path fill-rule="evenodd" clip-rule="evenodd" d="M65.7256 17.0002C65.7256 16.7241 65.5017 16.5002 65.2256 16.5002L1.22559 16.5002C0.94944 16.5002 0.725586 16.7241 0.725586 17.0002C0.725586 17.2764 0.94944 17.5002 1.22559 17.5002L65.2256 17.5002C65.5017 17.5002 65.7256 17.2764 65.7256 17.0002Z" fill="white"/>
<path fill-rule="evenodd" clip-rule="evenodd" d="M0.137932 17.1551C0.328375 17.3551 0.644863 17.3628 0.844829 17.1724L17.9705 0.862204C18.1705 0.671759 18.1782 0.355273 17.9877 0.155308C17.7973 -0.0446564 17.4808 -0.0523754 17.2808 0.138068L0.155173 16.4482C-0.0447919 16.6387 -0.0525111 16.9552 0.137932 17.1551Z" fill="white"/>
<path fill-rule="evenodd" clip-rule="evenodd" d="M0.146447 16.4567C-0.0488155 16.652 -0.0488155 16.9686 0.146447 17.1639L16.4566 33.474C16.6519 33.6693 16.9685 33.6693 17.1637 33.474C17.359 33.2788 17.359 32.9622 17.1637 32.7669L0.853553 16.4567C0.658291 16.2615 0.341709 16.2615 0.146447 16.4567Z" fill="white"/>
</svg>
